<svg width="27" height="30" viewBox="0 0 27 30" fill="none" xmlns="http://www.w3.org/2000/svg">
<path d="M1.94444 5.241H1.579C0.982444 5.241 0.5 4.7385 0.5 4.1205C0.5 3.5025 0.982444 3 1.579 3H9.16667V1.5C9.16667 0.6975 9.85133 0 10.6111 0H16.3889C17.1487 0 17.8333 0.6975 17.8333 1.5V3H25.4224C26.0176 3 26.5 3.5025 26.5 4.1205C26.5 4.7385 26.0176 5.241 25.4224 5.241H25.0556V28.3935C25.0556 29.28 24.4084 30 23.6111 30C19.4612 30 7.53878 30 3.38889 30C2.59156 30 1.94444 29.28 1.94444 28.3935V5.241ZM22.8889 5.241H4.11111V27.75H22.8889V5.241ZM16.75 9C16.152 9 15.6667 9.504 15.6667 10.125V22.875C15.6667 23.496 16.152 24 16.75 24C17.348 24 17.8333 23.496 17.8333 22.875V10.125C17.8333 9.504 17.348 9 16.75 9ZM10.25 9C9.652 9 9.16667 9.504 9.16667 10.125V22.875C9.16667 23.496 9.652 24 10.25 24C10.848 24 11.3333 23.496 11.3333 22.875V10.125C11.3333 9.504 10.848 9 10.25 9ZM15.6667 3V2.25H11.3333V3H15.6667Z" fill="white"/>
</svg>
