<svg width="31" height="30" viewBox="0 0 31 30" fill="none" xmlns="http://www.w3.org/2000/svg">
<path d="M27.1667 28.75C27.1667 28.08 26.5733 27.5 25.9167 27.5C21.6483 27.5 6.01833 27.5 1.75 27.5C1.09333 27.5 0.5 28.08 0.5 28.75C0.5 29.42 1.09333 30 1.75 30H25.9167C26.5733 30 27.1667 29.42 27.1667 28.75ZM7.12833 16.945C4.905 23.4717 4.66167 23.9983 4.66167 24.59C4.66167 25.4683 5.42833 25.8383 5.91 25.8383C6.49667 25.8383 7.02333 25.61 13.5333 23.35L7.12833 16.945ZM8.895 15.1767L15.305 21.5867L30.0117 6.89667C30.3367 6.57167 30.5 6.145 30.5 5.71833C30.5 5.29333 30.3367 4.86667 30.0117 4.54167C28.8583 3.39 27.1083 1.64 25.9533 0.488333C25.6283 0.163333 25.2017 0 24.775 0C24.3517 0 23.925 0.163333 23.5983 0.488333L8.895 15.1767Z" fill="white"/>
</svg>
