<svg width="30" height="24" viewBox="0 0 30 24" fill="none" xmlns="http://www.w3.org/2000/svg">
<path d="M22.6035 3.819L26.6295 0.2805C26.844 0.0929997 27.1095 0 27.375 0C28.002 0 28.5 0.51 28.5 1.125C28.5 1.4355 28.371 1.746 28.119 1.968L3.369 23.7195C3.156 23.9085 2.8905 24 2.625 24C2.0025 24 1.5 23.499 1.5 22.875C1.5 22.5645 1.629 22.254 1.8795 22.032L5.5365 18.8175C3.4155 17.1195 1.596 14.9895 0.216 12.7755C0.0720001 12.537 0 12.2685 0 12C0 11.7315 0.0735 11.463 0.2175 11.2245C3.384 6.1395 8.88 1.5 14.997 1.5C17.7195 1.5 20.301 2.3895 22.6035 3.819ZM26.082 6.564C27.531 7.9785 28.7865 9.585 29.793 11.2395C29.931 11.4735 30 11.7375 30 12C30 12.2625 29.931 12.5265 29.793 12.7605C26.691 17.865 21.2115 22.5 14.997 22.5C13.0515 22.5 11.1675 22.0305 9.4035 21.2265L11.274 19.5825C12.4665 20.01 13.713 20.25 14.997 20.25C20.271 20.25 24.861 16.317 27.6165 12C26.724 10.602 25.6395 9.243 24.399 8.0445L26.082 6.564ZM20.931 11.0925C20.976 11.388 21 11.691 21 12C21 15.312 18.312 18 15 18C14.424 18 13.866 17.919 13.3395 17.766L15.7095 15.6825C17.052 15.426 18.141 14.451 18.561 13.176L20.931 11.0925ZM20.844 5.3655C19.0485 4.3605 17.076 3.75 14.997 3.75C9.7995 3.75 5.1975 7.698 2.391 12C3.6705 13.962 5.3235 15.8505 7.2375 17.3235L9.8295 15.045C9.303 14.1525 9 13.1115 9 12C9 8.688 11.688 6 15 6C16.3875 6 17.6655 6.4725 18.6825 7.2645L20.844 5.3655ZM16.944 8.793C16.377 8.448 15.711 8.25 15 8.25C12.93 8.25 11.25 9.93 11.25 12C11.25 12.54 11.364 13.0515 11.5695 13.5165L16.944 8.793Z" fill="white"/>
</svg>
