<svg width="31" height="22" viewBox="0 0 31 22" fill="none" xmlns="http://www.w3.org/2000/svg">
<path d="M15.497 0C9.38 0 3.884 4.86043 0.7175 10.1876C0.5735 10.4374 0.5 10.7187 0.5 11C0.5 11.2813 0.572 11.5626 0.716 11.8124C3.884 17.1396 9.38 22 15.497 22C21.7115 22 27.191 17.1443 30.293 11.7967C30.431 11.5516 30.5 11.275 30.5 11C30.5 10.725 30.431 10.4484 30.293 10.2033C27.191 4.85571 21.7115 0 15.497 0ZM28.1165 11C25.361 15.5226 20.771 19.6429 15.497 19.6429C10.2995 19.6429 5.699 15.5069 2.891 11C5.6975 6.49314 10.2995 2.35714 15.497 2.35714C20.774 2.35714 25.3655 6.48057 28.1165 11ZM15.5 4.71429C18.812 4.71429 21.5 7.53029 21.5 11C21.5 14.4697 18.812 17.2857 15.5 17.2857C12.188 17.2857 9.5 14.4697 9.5 11C9.5 7.53029 12.188 4.71429 15.5 4.71429ZM15.5 7.07143C13.43 7.07143 11.75 8.83143 11.75 11C11.75 13.1686 13.43 14.9286 15.5 14.9286C17.57 14.9286 19.25 13.1686 19.25 11C19.25 8.83143 17.57 7.07143 15.5 7.07143Z" fill="white"/>
</svg>
